<mxfile host="Electron" modified="2025-04-13T19:29:56.502Z" agent="Mozilla/5.0 (Windows NT 10.0; Win64; x64) AppleWebKit/537.36 (KHTML, like Gecko) draw.io/24.4.0 Chrome/120.0.6099.109 Electron/28.1.0 Safari/537.36" etag="q3A3oNOY_rEe67rdqKIR" version="24.4.0" type="device">
  <diagram name="Страница — 1" id="DZKA9kgpC1FQaS0XYi22">
    <mxGraphModel dx="3860" dy="2455" grid="1" gridSize="10" guides="1" tooltips="1" connect="1" arrows="1" fold="1" page="1" pageScale="1" pageWidth="827" pageHeight="1169" math="0" shadow="0">
      <root>
        <mxCell id="0" />
        <mxCell id="1" parent="0" />
        <mxCell id="8V75USKSEE-7EEc8AEDa-85" value="" style="rounded=0;whiteSpace=wrap;html=1;fillColor=#9c9c9c;" parent="1" vertex="1">
          <mxGeometry x="-948.5" y="-350" width="1887" height="1410" as="geometry" />
        </mxCell>
        <mxCell id="8V75USKSEE-7EEc8AEDa-79" value="" style="strokeWidth=2;html=1;shape=mxgraph.flowchart.terminator;whiteSpace=wrap;fillColor=#daab2b;" parent="1" vertex="1">
          <mxGeometry x="-890" y="500" width="1770" height="450" as="geometry" />
        </mxCell>
        <mxCell id="8V75USKSEE-7EEc8AEDa-40" value="" style="strokeWidth=2;html=1;shape=mxgraph.flowchart.terminator;whiteSpace=wrap;fillColor=#64bb2a;gradientColor=none;" parent="1" vertex="1">
          <mxGeometry x="94" y="65" width="640" height="260" as="geometry" />
        </mxCell>
        <mxCell id="8V75USKSEE-7EEc8AEDa-38" value="" style="strokeWidth=2;html=1;shape=mxgraph.flowchart.terminator;whiteSpace=wrap;fillColor=#3584ac;" parent="1" vertex="1">
          <mxGeometry x="-860" y="55" width="820" height="395" as="geometry" />
        </mxCell>
        <mxCell id="8V75USKSEE-7EEc8AEDa-29" style="edgeStyle=orthogonalEdgeStyle;rounded=0;orthogonalLoop=1;jettySize=auto;html=1;exitX=1;exitY=0.5;exitDx=0;exitDy=0;entryX=0;entryY=0.5;entryDx=0;entryDy=0;strokeWidth=2;" parent="1" source="8V75USKSEE-7EEc8AEDa-17" target="8V75USKSEE-7EEc8AEDa-23" edge="1">
          <mxGeometry relative="1" as="geometry" />
        </mxCell>
        <mxCell id="8V75USKSEE-7EEc8AEDa-17" value="Сотрудником вноситься информация о продукте&lt;div&gt;&lt;div&gt;(название продукта, поставщик, срок хранения, категория)&lt;/div&gt;&lt;/div&gt;" style="ellipse;whiteSpace=wrap;html=1;" parent="1" vertex="1">
          <mxGeometry x="-520" y="185" width="180" height="120" as="geometry" />
        </mxCell>
        <mxCell id="8V75USKSEE-7EEc8AEDa-22" value="Сотрудником вноситься инфомарция о поставщике&lt;br&gt;(название&amp;nbsp; компании, ИНН, адрес)" style="ellipse;whiteSpace=wrap;html=1;" parent="1" vertex="1">
          <mxGeometry x="-760" y="120" width="180" height="120" as="geometry" />
        </mxCell>
        <mxCell id="8V75USKSEE-7EEc8AEDa-23" value="Сотрудником вноситься описание продукта (есть настраиваемы поля)" style="ellipse;whiteSpace=wrap;html=1;" parent="1" vertex="1">
          <mxGeometry x="-280" y="185" width="180" height="120" as="geometry" />
        </mxCell>
        <mxCell id="8V75USKSEE-7EEc8AEDa-24" value="Сотрудником заранее создаются категории товаров&lt;br&gt;(у одного товара может быть несколько категорий и наборот)" style="ellipse;whiteSpace=wrap;html=1;" parent="1" vertex="1">
          <mxGeometry x="-760" y="250" width="180" height="120" as="geometry" />
        </mxCell>
        <mxCell id="8V75USKSEE-7EEc8AEDa-30" value="" style="strokeWidth=2;html=1;shape=mxgraph.flowchart.annotation_1;align=left;pointerEvents=1;direction=south;" parent="1" vertex="1">
          <mxGeometry x="-520" y="185" width="420" height="50" as="geometry" />
        </mxCell>
        <mxCell id="8V75USKSEE-7EEc8AEDa-31" value="&lt;font face=&quot;Courier New&quot; style=&quot;font-size: 15px;&quot;&gt;Номенклатура продукта&lt;/font&gt;" style="text;html=1;align=center;verticalAlign=middle;whiteSpace=wrap;rounded=0;" parent="1" vertex="1">
          <mxGeometry x="-405" y="155" width="205" height="30" as="geometry" />
        </mxCell>
        <mxCell id="8V75USKSEE-7EEc8AEDa-64" style="edgeStyle=orthogonalEdgeStyle;rounded=0;orthogonalLoop=1;jettySize=auto;html=1;exitX=1;exitY=0.5;exitDx=0;exitDy=0;entryX=0;entryY=0.5;entryDx=0;entryDy=0;strokeWidth=2;" parent="1" source="8V75USKSEE-7EEc8AEDa-32" target="8V75USKSEE-7EEc8AEDa-33" edge="1">
          <mxGeometry relative="1" as="geometry" />
        </mxCell>
        <mxCell id="8V75USKSEE-7EEc8AEDa-32" value="Поставка&lt;br&gt;(номер поставки, номер накладной, поставщик, дата поставки, продукты с их кол-вом)" style="rounded=0;whiteSpace=wrap;html=1;" parent="1" vertex="1">
          <mxGeometry x="154" y="135" width="180" height="120" as="geometry" />
        </mxCell>
        <mxCell id="8V75USKSEE-7EEc8AEDa-65" style="edgeStyle=orthogonalEdgeStyle;rounded=0;orthogonalLoop=1;jettySize=auto;html=1;exitX=1;exitY=0.5;exitDx=0;exitDy=0;entryX=0;entryY=0.5;entryDx=0;entryDy=0;strokeWidth=2;" parent="1" source="8V75USKSEE-7EEc8AEDa-33" target="8V75USKSEE-7EEc8AEDa-37" edge="1">
          <mxGeometry relative="1" as="geometry" />
        </mxCell>
        <mxCell id="8V75USKSEE-7EEc8AEDa-33" value="Сотрудник вносит данные поставки в базу" style="ellipse;whiteSpace=wrap;html=1;" parent="1" vertex="1">
          <mxGeometry x="354" y="155" width="120" height="80" as="geometry" />
        </mxCell>
        <mxCell id="8V75USKSEE-7EEc8AEDa-37" value="Продукт из поставки падает в общий остаток продукта с датой поставки и кол-вом" style="shape=trapezoid;perimeter=trapezoidPerimeter;whiteSpace=wrap;html=1;fixedSize=1;" parent="1" vertex="1">
          <mxGeometry x="494" y="135" width="180" height="120" as="geometry" />
        </mxCell>
        <mxCell id="8V75USKSEE-7EEc8AEDa-39" value="&lt;font style=&quot;font-size: 25px;&quot;&gt;Подготовка к работе с поставщиком&lt;/font&gt;" style="text;html=1;align=center;verticalAlign=middle;whiteSpace=wrap;rounded=0;fontSize=25;fontFamily=Lucida Console;horizontal=1;" parent="1" vertex="1">
          <mxGeometry x="-740" y="15" width="550" height="40" as="geometry" />
        </mxCell>
        <mxCell id="8V75USKSEE-7EEc8AEDa-41" value="&lt;font style=&quot;font-size: 25px;&quot;&gt;Прием продуктов через базу&lt;/font&gt;" style="text;html=1;align=center;verticalAlign=middle;whiteSpace=wrap;rounded=0;fontSize=25;fontFamily=Lucida Console;horizontal=1;" parent="1" vertex="1">
          <mxGeometry x="210" y="35" width="416" height="30" as="geometry" />
        </mxCell>
        <mxCell id="8V75USKSEE-7EEc8AEDa-66" style="edgeStyle=orthogonalEdgeStyle;rounded=0;orthogonalLoop=1;jettySize=auto;html=1;exitX=1;exitY=0.5;exitDx=0;exitDy=0;entryX=0;entryY=0.5;entryDx=0;entryDy=0;strokeWidth=2;" parent="1" source="8V75USKSEE-7EEc8AEDa-43" target="8V75USKSEE-7EEc8AEDa-51" edge="1">
          <mxGeometry relative="1" as="geometry" />
        </mxCell>
        <mxCell id="8V75USKSEE-7EEc8AEDa-43" value="Клиент регистрируется (имя, фамилия, почта)" style="ellipse;whiteSpace=wrap;html=1;" parent="1" vertex="1">
          <mxGeometry x="-745" y="580" width="180" height="120" as="geometry" />
        </mxCell>
        <mxCell id="8V75USKSEE-7EEc8AEDa-68" style="edgeStyle=orthogonalEdgeStyle;rounded=0;orthogonalLoop=1;jettySize=auto;html=1;exitX=1;exitY=0.5;exitDx=0;exitDy=0;entryX=0;entryY=0.5;entryDx=0;entryDy=0;strokeWidth=2;" parent="1" source="8V75USKSEE-7EEc8AEDa-46" target="8V75USKSEE-7EEc8AEDa-50" edge="1">
          <mxGeometry relative="1" as="geometry" />
        </mxCell>
        <mxCell id="8V75USKSEE-7EEc8AEDa-46" value="Клиент добавляет продукт в корзину" style="ellipse;whiteSpace=wrap;html=1;" parent="1" vertex="1">
          <mxGeometry x="-320" y="575" width="180" height="130" as="geometry" />
        </mxCell>
        <mxCell id="8V75USKSEE-7EEc8AEDa-70" style="edgeStyle=orthogonalEdgeStyle;rounded=0;orthogonalLoop=1;jettySize=auto;html=1;exitX=1;exitY=0.5;exitDx=0;exitDy=0;entryX=0;entryY=0.5;entryDx=0;entryDy=0;strokeWidth=2;" parent="1" source="8V75USKSEE-7EEc8AEDa-49" target="8V75USKSEE-7EEc8AEDa-52" edge="1">
          <mxGeometry relative="1" as="geometry" />
        </mxCell>
        <mxCell id="8V75USKSEE-7EEc8AEDa-49" value="Клиент уточняет свои контактные данные (телефон, адресов могут быть несколько)" style="ellipse;whiteSpace=wrap;html=1;" parent="1" vertex="1">
          <mxGeometry x="120" y="580" width="170" height="120" as="geometry" />
        </mxCell>
        <mxCell id="8V75USKSEE-7EEc8AEDa-69" style="edgeStyle=orthogonalEdgeStyle;rounded=0;orthogonalLoop=1;jettySize=auto;html=1;exitX=1;exitY=0.5;exitDx=0;exitDy=0;entryX=0;entryY=0.5;entryDx=0;entryDy=0;strokeWidth=2;" parent="1" source="8V75USKSEE-7EEc8AEDa-50" target="8V75USKSEE-7EEc8AEDa-49" edge="1">
          <mxGeometry relative="1" as="geometry" />
        </mxCell>
        <mxCell id="8V75USKSEE-7EEc8AEDa-50" value="В корзину падает продукт" style="shape=trapezoid;perimeter=trapezoidPerimeter;whiteSpace=wrap;html=1;fixedSize=1;" parent="1" vertex="1">
          <mxGeometry x="-100" y="580" width="180" height="120" as="geometry" />
        </mxCell>
        <mxCell id="8V75USKSEE-7EEc8AEDa-67" style="edgeStyle=orthogonalEdgeStyle;rounded=0;orthogonalLoop=1;jettySize=auto;html=1;exitX=1;exitY=0.5;exitDx=0;exitDy=0;entryX=0;entryY=0.5;entryDx=0;entryDy=0;strokeWidth=2;" parent="1" source="8V75USKSEE-7EEc8AEDa-51" target="8V75USKSEE-7EEc8AEDa-46" edge="1">
          <mxGeometry relative="1" as="geometry" />
        </mxCell>
        <mxCell id="8V75USKSEE-7EEc8AEDa-51" value="Клиенту добавляется возможность пользоваться корзиной" style="rhombus;whiteSpace=wrap;html=1;" parent="1" vertex="1">
          <mxGeometry x="-530" y="580" width="180" height="120" as="geometry" />
        </mxCell>
        <mxCell id="8V75USKSEE-7EEc8AEDa-71" style="edgeStyle=orthogonalEdgeStyle;rounded=0;orthogonalLoop=1;jettySize=auto;html=1;exitX=1;exitY=0.5;exitDx=0;exitDy=0;entryX=0;entryY=0.5;entryDx=0;entryDy=0;strokeWidth=2;" parent="1" source="8V75USKSEE-7EEc8AEDa-52" target="8V75USKSEE-7EEc8AEDa-54" edge="1">
          <mxGeometry relative="1" as="geometry" />
        </mxCell>
        <mxCell id="8V75USKSEE-7EEc8AEDa-52" value="Клиенту добавляется возможность делать заказ" style="rhombus;whiteSpace=wrap;html=1;" parent="1" vertex="1">
          <mxGeometry x="330" y="580" width="180" height="120" as="geometry" />
        </mxCell>
        <mxCell id="8V75USKSEE-7EEc8AEDa-72" style="edgeStyle=orthogonalEdgeStyle;rounded=0;orthogonalLoop=1;jettySize=auto;html=1;exitX=0.5;exitY=1;exitDx=0;exitDy=0;entryX=1;entryY=0.5;entryDx=0;entryDy=0;strokeWidth=2;" parent="1" source="8V75USKSEE-7EEc8AEDa-54" target="8V75USKSEE-7EEc8AEDa-55" edge="1">
          <mxGeometry relative="1" as="geometry">
            <Array as="points">
              <mxPoint x="660" y="800" />
            </Array>
          </mxGeometry>
        </mxCell>
        <mxCell id="8V75USKSEE-7EEc8AEDa-54" value="Клиент делает заказ" style="ellipse;whiteSpace=wrap;html=1;" parent="1" vertex="1">
          <mxGeometry x="570" y="580" width="180" height="120" as="geometry" />
        </mxCell>
        <mxCell id="8V75USKSEE-7EEc8AEDa-73" style="edgeStyle=orthogonalEdgeStyle;rounded=0;orthogonalLoop=1;jettySize=auto;html=1;exitX=0;exitY=0.5;exitDx=0;exitDy=0;entryX=1;entryY=0.5;entryDx=0;entryDy=0;strokeWidth=2;" parent="1" source="8V75USKSEE-7EEc8AEDa-55" target="8V75USKSEE-7EEc8AEDa-56" edge="1">
          <mxGeometry relative="1" as="geometry" />
        </mxCell>
        <mxCell id="8V75USKSEE-7EEc8AEDa-55" value="Продукт из корзины падает в заказ, соблюдая ротацию&lt;br&gt;Заказу выставляется статус &quot;создан&quot;&lt;br&gt;На почту сотрудника падает накладная" style="shape=trapezoid;perimeter=trapezoidPerimeter;whiteSpace=wrap;html=1;fixedSize=1;" parent="1" vertex="1">
          <mxGeometry x="460" y="740" width="180" height="120" as="geometry" />
        </mxCell>
        <mxCell id="8V75USKSEE-7EEc8AEDa-74" style="edgeStyle=orthogonalEdgeStyle;rounded=0;orthogonalLoop=1;jettySize=auto;html=1;exitX=0;exitY=0.5;exitDx=0;exitDy=0;entryX=1;entryY=0.5;entryDx=0;entryDy=0;strokeWidth=2;" parent="1" source="8V75USKSEE-7EEc8AEDa-56" target="8V75USKSEE-7EEc8AEDa-57" edge="1">
          <mxGeometry relative="1" as="geometry" />
        </mxCell>
        <mxCell id="8V75USKSEE-7EEc8AEDa-56" value="Сотрудник выставялет статус &quot;в сборке&quot;, &quot;собран&quot; и &quot;отгружен&quot;" style="ellipse;whiteSpace=wrap;html=1;" parent="1" vertex="1">
          <mxGeometry x="210" y="740" width="180" height="120" as="geometry" />
        </mxCell>
        <mxCell id="8V75USKSEE-7EEc8AEDa-75" style="edgeStyle=orthogonalEdgeStyle;rounded=0;orthogonalLoop=1;jettySize=auto;html=1;exitX=0;exitY=0.5;exitDx=0;exitDy=0;entryX=1;entryY=0.5;entryDx=0;entryDy=0;strokeWidth=2;" parent="1" source="8V75USKSEE-7EEc8AEDa-57" target="8V75USKSEE-7EEc8AEDa-59" edge="1">
          <mxGeometry relative="1" as="geometry" />
        </mxCell>
        <mxCell id="8V75USKSEE-7EEc8AEDa-57" value="Клиенту и менеджеру идет отибка о отгрузке товара и отправляется" style="rhombus;whiteSpace=wrap;html=1;" parent="1" vertex="1">
          <mxGeometry x="-40" y="740" width="180" height="120" as="geometry" />
        </mxCell>
        <mxCell id="8V75USKSEE-7EEc8AEDa-76" style="edgeStyle=orthogonalEdgeStyle;rounded=0;orthogonalLoop=1;jettySize=auto;html=1;exitX=0;exitY=0.5;exitDx=0;exitDy=0;entryX=1;entryY=0.5;entryDx=0;entryDy=0;strokeWidth=2;" parent="1" source="8V75USKSEE-7EEc8AEDa-59" target="8V75USKSEE-7EEc8AEDa-60" edge="1">
          <mxGeometry relative="1" as="geometry" />
        </mxCell>
        <mxCell id="8V75USKSEE-7EEc8AEDa-59" value="Менеджер созванивается с клиентом и уточняет статус доставки: &quot;Доставлен&quot; или &quot;Отказ&quot;" style="ellipse;whiteSpace=wrap;html=1;" parent="1" vertex="1">
          <mxGeometry x="-280" y="740" width="180" height="120" as="geometry" />
        </mxCell>
        <mxCell id="8V75USKSEE-7EEc8AEDa-60" value="Менеджер выставляет заказу необходимый статус" style="ellipse;whiteSpace=wrap;html=1;" parent="1" vertex="1">
          <mxGeometry x="-520" y="740" width="180" height="120" as="geometry" />
        </mxCell>
        <mxCell id="8V75USKSEE-7EEc8AEDa-63" style="edgeStyle=orthogonalEdgeStyle;rounded=0;orthogonalLoop=1;jettySize=auto;html=1;exitX=0;exitY=0.5;exitDx=0;exitDy=0;exitPerimeter=0;entryX=0;entryY=0.5;entryDx=0;entryDy=0;strokeWidth=2;" parent="1" source="8V75USKSEE-7EEc8AEDa-62" target="8V75USKSEE-7EEc8AEDa-17" edge="1">
          <mxGeometry relative="1" as="geometry" />
        </mxCell>
        <mxCell id="8V75USKSEE-7EEc8AEDa-62" value="" style="strokeWidth=2;html=1;shape=mxgraph.flowchart.annotation_2;align=left;labelPosition=right;pointerEvents=1;direction=west;" parent="1" vertex="1">
          <mxGeometry x="-590" y="120" width="50" height="250" as="geometry" />
        </mxCell>
        <mxCell id="8V75USKSEE-7EEc8AEDa-80" value="Процесс заказа" style="text;html=1;align=center;verticalAlign=middle;whiteSpace=wrap;rounded=0;fontSize=25;fontFamily=Lucida Console;horizontal=1;" parent="1" vertex="1">
          <mxGeometry x="-125" y="470" width="265" height="30" as="geometry" />
        </mxCell>
        <mxCell id="8V75USKSEE-7EEc8AEDa-81" value="&lt;h2 style=&quot;font-size: 30px;&quot;&gt;&lt;font face=&quot;Courier New&quot;&gt;Продуктовый&lt;br&gt;розничный&lt;br&gt;магазин&lt;/font&gt;&lt;/h2&gt;" style="ellipse;shape=cloud;whiteSpace=wrap;html=1;gradientColor=#f08e8e;gradientDirection=south;" parent="1" vertex="1">
          <mxGeometry x="-310" y="-215" width="580" height="230" as="geometry" />
        </mxCell>
      </root>
    </mxGraphModel>
  </diagram>
</mxfile>
